<svg width="96" height="34" viewBox="0 0 96 34" fill="none" xmlns="http://www.w3.org/2000/svg">
<path fill-rule="evenodd" clip-rule="evenodd" d="M41.658 11.6366C39.734 11.6366 38.0353 12.2693 36.562 13.5346C35.0886 14.7826 34.2046 16.3513 33.91 18.2406C33.5806 20.2513 33.9706 21.9413 35.08 23.3106C36.2066 24.68 37.8446 25.3646 39.994 25.3646C42.4206 25.3646 44.362 24.5413 45.818 22.8946L43.452 20.9966C42.62 21.8806 41.554 22.3226 40.254 22.3226C39.3873 22.3226 38.668 22.1233 38.096 21.7246C37.524 21.326 37.2033 20.7106 37.134 19.8786H46.962C47.17 19.3413 47.2913 18.882 47.326 18.5006C47.69 16.5766 47.3173 14.956 46.208 13.6386C45.0986 12.304 43.582 11.6366 41.658 11.6366ZM43.4 15.3026C43.92 15.7186 44.1886 16.3686 44.206 17.2526H37.602C37.966 16.4206 38.4773 15.7793 39.136 15.3286C39.812 14.878 40.5833 14.6526 41.45 14.6526C42.2473 14.6526 42.8973 14.8693 43.4 15.3026Z" fill="#18232F"/>
<path d="M47.8299 22.1666C48.6966 24.2986 50.4559 25.3646 53.1079 25.3646C54.5639 25.3646 55.7859 25.0526 56.7739 24.4286C57.7792 23.7873 58.3946 22.834 58.6199 21.5686C58.7932 20.598 58.6979 19.8093 58.3339 19.2026C57.9699 18.5786 57.4672 18.1453 56.8259 17.9026C56.2019 17.6426 55.5606 17.426 54.9019 17.2526C54.2606 17.0793 53.7232 16.88 53.2899 16.6546C52.8739 16.4293 52.7006 16.1173 52.7699 15.7186C52.9259 14.9733 53.5066 14.6006 54.5119 14.6006C55.5346 14.6006 56.2019 15.034 56.5139 15.9006L59.5299 14.3926C59.1312 13.526 58.5072 12.85 57.6579 12.3646C56.8086 11.8793 55.8206 11.6366 54.6939 11.6366C53.4286 11.6366 52.2846 11.9746 51.2619 12.6506C50.2566 13.3093 49.6412 14.2453 49.4159 15.4586C49.2599 16.3773 49.3639 17.1486 49.7279 17.7726C50.0919 18.3966 50.5859 18.8473 51.2099 19.1246C51.8339 19.3846 52.4666 19.61 53.1079 19.8006C53.7492 19.9913 54.2866 20.1993 54.7199 20.4246C55.1532 20.65 55.3439 20.9446 55.2919 21.3086C55.1532 21.9846 54.5206 22.3226 53.3939 22.3226C52.0419 22.3226 51.1926 21.768 50.8459 20.6586L47.8299 22.1666Z" fill="#18232F"/>
<path d="M72.9437 13.0926C72.1463 12.122 71.0197 11.6366 69.5637 11.6366C67.8997 11.6366 66.5563 12.226 65.5337 13.4046L65.7937 12.0006H62.4397L60.1517 25.0006H63.5057L64.8057 17.5646C65.0483 16.6286 65.4643 15.9266 66.0537 15.4586C66.6603 14.9906 67.3623 14.7566 68.1597 14.7566C68.9397 14.7566 69.5203 14.982 69.9017 15.4326C70.3003 15.8833 70.4217 16.5506 70.2657 17.4346L68.9397 25.0006H72.2937L73.6977 17.0186C73.9923 15.372 73.741 14.0633 72.9437 13.0926Z" fill="#18232F"/>
<path d="M79.3708 10.4406C79.9428 10.4406 80.4628 10.2413 80.9308 9.84264C81.3988 9.44397 81.6848 8.95864 81.7888 8.38664C81.8754 7.83197 81.7454 7.34664 81.3988 6.93064C81.0694 6.51464 80.6188 6.30664 80.0468 6.30664C79.4748 6.30664 78.9548 6.51464 78.4868 6.93064C78.0188 7.32931 77.7414 7.81464 77.6548 8.38664C77.5681 8.94131 77.6894 9.42664 78.0188 9.84264C78.3481 10.2413 78.7988 10.4406 79.3708 10.4406Z" fill="#18232F"/>
<path d="M77.3948 12.0006L75.1068 25.0006H78.4608L80.7488 12.0006H77.3948Z" fill="#18232F"/>
<path d="M89.1746 18.4226L95.4406 12.0006H91.4626L86.2106 17.4866L88.0826 6.80064H84.7286L81.5306 25.0006H84.8846L85.9506 18.8906L89.6686 25.0006H93.3086L89.1746 18.4226Z" fill="#18232F"/>
<circle cx="16" cy="18" r="16" fill="#18232F"/>
<path fill-rule="evenodd" clip-rule="evenodd" d="M14.1353 26.98C15.5033 28.2973 17.036 28.956 18.7333 28.956C20.532 28.956 22.128 28.4493 23.5213 27.436C24.9147 26.3973 25.9913 24.9533 26.7513 23.104C27.5367 21.2547 27.9293 19.1267 27.9293 16.72C27.9293 14.0853 27.296 12.0587 26.0293 10.64C24.788 9.196 23.116 8.474 21.0133 8.474C20.1013 8.474 19.2527 8.664 18.4673 9.044C17.682 9.424 16.998 9.956 16.4153 10.64L17.4413 1.178C17.4413 0.848665 17.2513 0.569998 16.8713 0.341998C16.5167 0.114 15.9847 0 15.2753 0H14.2113C12.6913 0 11.8933 0.405333 11.8173 1.216L9.00534 27.664C8.92934 28.3733 9.66401 28.728 11.2093 28.728H11.6653C12.2987 28.728 12.7547 28.6773 13.0333 28.576C13.3373 28.4493 13.5527 28.2847 13.6793 28.082C13.8313 27.854 13.9833 27.4867 14.1353 26.98ZM20.9753 22.61C20.1393 23.8767 18.9613 24.51 17.4413 24.51C16.5547 24.51 15.7313 24.1807 14.9713 23.522L15.1233 22.458C15.2753 21.4447 15.3767 20.6847 15.4273 20.178L15.9593 15.2C16.8967 13.7813 17.872 13.072 18.8853 13.072C20.0507 13.072 20.8993 13.4013 21.4313 14.06C21.9633 14.6933 22.2293 15.694 22.2293 17.062C22.2293 19.4687 21.8113 21.318 20.9753 22.61Z" fill="white"/>
</svg>
