<svg width="45" height="28" viewBox="0 0 45 28" fill="none" xmlns="http://www.w3.org/2000/svg">
<path d="M3.21851 0.358209L3.75 0C8.31693 0.776119 12.126 2.83582 15.1772 6.1791C18.2087 9.52239 19.7244 13.1841 19.7244 17.1642C19.7244 20.3284 18.8091 22.9254 16.9783 24.9552C15.1476 26.9851 12.815 28 9.98032 28C7.18504 28 4.82284 26.995 2.8937 24.9851C0.964565 22.9552 0 20.4677 0 17.5224C0 12.7463 2.62795 9.57214 7.88386 8C7.52953 4.61692 5.97441 2.06965 3.21851 0.358209Z" fill="#F5A951"/>
<path d="M28.4941 0.358209L29.0256 0C33.5925 0.776119 37.4016 2.83582 40.4528 6.1791C43.4843 9.52239 45 13.1841 45 17.1642C45 20.3284 44.0846 22.9254 42.2539 24.9552C40.4232 26.9851 38.0906 28 35.2559 28C32.4606 28 30.0984 26.995 28.1693 24.9851C26.2402 22.9552 25.2756 20.4677 25.2756 17.5224C25.2756 12.7463 27.9035 9.57214 33.1594 8C32.8051 4.61692 31.25 2.06965 28.4941 0.358209Z" fill="#F5A951"/>
</svg>
